<?xml version="1.0" encoding="UTF-8"?> <svg xmlns="http://www.w3.org/2000/svg" width="660" height="656" viewBox="0 0 660 656" fill="none"><path fill-rule="evenodd" clip-rule="evenodd" d="M257.893 392.459C257.893 396.852 254.028 400.414 249.257 400.414C244.49 400.414 240.621 396.852 240.621 392.459C240.621 388.066 244.49 384.507 249.257 384.507C254.028 384.507 257.893 388.066 257.893 392.459Z" fill="#E8F2FC"></path><path fill-rule="evenodd" clip-rule="evenodd" d="M418.519 392.459C418.519 396.852 414.652 400.414 409.884 400.414C405.115 400.414 401.247 396.852 401.247 392.459C401.247 388.066 405.115 384.507 409.884 384.507C414.652 384.507 418.519 388.066 418.519 392.459Z" fill="#E8F2FC"></path><path fill-rule="evenodd" clip-rule="evenodd" d="M298.193 328.29C298.193 332.683 294.327 336.248 289.557 336.248C284.788 336.248 280.921 332.683 280.921 328.29C280.921 323.895 284.788 320.334 289.557 320.334C294.327 320.334 298.193 323.895 298.193 328.29Z" fill="#E8F2FC"></path><path fill-rule="evenodd" clip-rule="evenodd" d="M298.193 456.1C298.193 460.495 294.327 464.055 289.557 464.055C284.788 464.055 280.921 460.495 280.921 456.1C280.921 451.707 284.788 448.144 289.557 448.144C294.327 448.144 298.193 451.707 298.193 456.1Z" fill="#E8F2FC"></path><path fill-rule="evenodd" clip-rule="evenodd" d="M378.217 328.29C378.217 332.683 374.348 336.248 369.582 336.248C364.811 336.248 360.945 332.683 360.945 328.29C360.945 323.895 364.811 320.334 369.582 320.334C374.348 320.334 378.217 323.895 378.217 328.29Z" fill="#E8F2FC"></path><path fill-rule="evenodd" clip-rule="evenodd" d="M378.217 456.1C378.217 460.495 374.348 464.055 369.582 464.055C364.811 464.055 360.945 460.495 360.945 456.1C360.945 451.707 364.811 448.144 369.582 448.144C374.348 448.144 378.217 451.707 378.217 456.1Z" fill="#E8F2FC"></path><path fill-rule="evenodd" clip-rule="evenodd" d="M528.933 200.958L489.219 137.598H410.679L370.969 200.958L368.299 199.536L408.898 134.756H490.999L531.606 199.536L528.933 200.958Z" fill="#E8F2FC"></path><path fill-rule="evenodd" clip-rule="evenodd" d="M378.272 200.518C378.272 204.912 374.405 208.472 369.635 208.472C364.866 208.472 361 204.912 361 200.518C361 196.123 364.866 192.56 369.635 192.56C374.405 192.56 378.272 196.123 378.272 200.518Z" fill="#E8F2FC"></path><path fill-rule="evenodd" clip-rule="evenodd" d="M538.896 200.518C538.896 204.912 535.031 208.472 530.261 208.472C525.492 208.472 521.623 204.912 521.623 200.518C521.623 196.123 525.492 192.56 530.261 192.56C535.031 192.56 538.896 196.123 538.896 200.518Z" fill="#E8F2FC"></path><path fill-rule="evenodd" clip-rule="evenodd" d="M418.571 136.345C418.571 140.741 414.702 144.301 409.938 144.301C405.165 144.301 401.299 140.741 401.299 136.345C401.299 131.953 405.165 128.391 409.938 128.391C414.702 128.391 418.571 131.953 418.571 136.345Z" fill="#E8F2FC"></path><path fill-rule="evenodd" clip-rule="evenodd" d="M418.571 264.159C418.571 268.552 414.702 272.113 409.938 272.113C405.165 272.113 401.299 268.552 401.299 264.159C401.299 259.765 405.165 256.203 409.938 256.203C414.702 256.203 418.571 259.765 418.571 264.159Z" fill="#E8F2FC"></path><path fill-rule="evenodd" clip-rule="evenodd" d="M498.593 136.345C498.593 140.741 494.728 144.301 489.958 144.301C485.191 144.301 481.324 140.741 481.324 136.345C481.324 131.953 485.191 128.391 489.958 128.391C494.728 128.391 498.593 131.953 498.593 136.345Z" fill="#E8F2FC"></path><path fill-rule="evenodd" clip-rule="evenodd" d="M498.593 264.159C498.593 268.552 494.728 272.113 489.958 272.113C485.191 272.113 481.324 268.552 481.324 264.159C481.324 259.765 485.191 256.203 489.958 256.203C494.728 256.203 498.593 259.765 498.593 264.159Z" fill="#E8F2FC"></path><path fill-rule="evenodd" clip-rule="evenodd" d="M491.3 136.747L488.629 135.325L528.782 71.2559L531.455 72.6743L491.3 136.747Z" fill="#E8F2FC"></path><path fill-rule="evenodd" clip-rule="evenodd" d="M538.907 72.1341C538.907 76.53 535.038 80.0914 530.27 80.0914C525.501 80.0914 521.634 76.53 521.634 72.1341C521.634 67.7411 525.501 64.1787 530.27 64.1787C535.038 64.1787 538.907 67.7411 538.907 72.1341Z" fill="#E8F2FC"></path><path fill-rule="evenodd" clip-rule="evenodd" d="M9.96666 393.465L7.29688 392.045L47.4527 327.976L50.1224 329.397L9.96666 393.465Z" fill="#E8F2FC"></path><path fill-rule="evenodd" clip-rule="evenodd" d="M17.2701 393.027C17.2701 397.42 13.4039 400.981 8.63401 400.981C3.86616 400.981 0 397.42 0 393.027C0 388.632 3.86616 385.068 8.63401 385.068C13.4039 385.068 17.2701 388.632 17.2701 393.027Z" fill="#E8F2FC"></path><path fill-rule="evenodd" clip-rule="evenodd" d="M57.5709 328.855C57.5709 333.25 53.7037 336.81 48.9349 336.81C44.166 336.81 40.2998 333.25 40.2998 328.855C40.2998 324.46 44.166 320.903 48.9349 320.903C53.7037 320.903 57.5709 324.46 57.5709 328.855Z" fill="#E8F2FC"></path><path fill-rule="evenodd" clip-rule="evenodd" d="M611.551 328.704L608.88 327.284L649.037 263.211L651.708 264.635L611.551 328.704Z" fill="#E8F2FC"></path><path fill-rule="evenodd" clip-rule="evenodd" d="M618.856 328.263C618.856 332.656 614.987 336.216 610.219 336.216C605.45 336.216 601.584 332.656 601.584 328.263C601.584 323.869 605.45 320.308 610.219 320.308C614.987 320.308 618.856 323.869 618.856 328.263Z" fill="#E8F2FC"></path><path fill-rule="evenodd" clip-rule="evenodd" d="M659.158 264.091C659.158 268.488 655.289 272.049 650.521 272.049C645.75 272.049 641.886 268.488 641.886 264.091C641.886 259.698 645.75 256.139 650.521 256.139C655.289 256.139 659.158 259.698 659.158 264.091Z" fill="#E8F2FC"></path><path fill-rule="evenodd" clip-rule="evenodd" d="M250.703 136.733L248.031 135.311L288.187 71.2405L290.859 72.6628L250.703 136.733Z" fill="#E8F2FC"></path><path fill-rule="evenodd" clip-rule="evenodd" d="M258.009 136.292C258.009 140.687 254.14 144.247 249.374 144.247C244.604 144.247 240.735 140.687 240.735 136.292C240.735 131.898 244.604 128.337 249.374 128.337C254.14 128.337 258.009 131.898 258.009 136.292Z" fill="#E8F2FC"></path><path fill-rule="evenodd" clip-rule="evenodd" d="M298.308 72.119C298.308 76.5149 294.44 80.0744 289.67 80.0744C284.901 80.0744 281.035 76.5149 281.035 72.119C281.035 67.726 284.901 64.1675 289.67 64.1675C294.44 64.1675 298.308 67.726 298.308 72.119Z" fill="#E8F2FC"></path><path fill-rule="evenodd" clip-rule="evenodd" d="M288.316 72.5681L248.161 8.49483L250.831 7.07446L290.987 71.1467L288.316 72.5681Z" fill="#E8F2FC"></path><path fill-rule="evenodd" clip-rule="evenodd" d="M240.712 7.95588C240.712 12.3518 244.581 15.9113 249.348 15.9113C254.118 15.9113 257.983 12.3518 257.983 7.95588C257.983 3.56192 254.118 0.000488281 249.348 0.000488281C244.581 0.000488281 240.712 3.56192 240.712 7.95588Z" fill="#E8F2FC"></path><path fill-rule="evenodd" clip-rule="evenodd" d="M47.6129 201.498L7.45508 137.427L10.128 136.007L50.2848 200.078L47.6129 201.498Z" fill="#E8F2FC"></path><path fill-rule="evenodd" clip-rule="evenodd" d="M40.3086 201.056C40.3086 205.452 44.1768 209.014 48.9436 209.014C53.7136 209.014 57.5787 205.452 57.5787 201.056C57.5787 196.664 53.7136 193.102 48.9436 193.102C44.1768 193.102 40.3086 196.664 40.3086 201.056Z" fill="#E8F2FC"></path><path fill-rule="evenodd" clip-rule="evenodd" d="M0.0078125 136.887C0.0078125 141.282 3.87605 144.845 8.6439 144.845C13.4117 144.845 17.2779 141.282 17.2779 136.887C17.2779 132.494 13.4117 128.932 8.6439 128.932C3.87605 128.932 0.0078125 132.494 0.0078125 136.887Z" fill="#E8F2FC"></path><path fill-rule="evenodd" clip-rule="evenodd" d="M249.476 394.085H168.267L127.219 328.581L168.267 263.09H249.476V265.933H170.046L130.782 328.581L170.046 391.242H249.476V394.085Z" fill="#E8F2FC"></path><path fill-rule="evenodd" clip-rule="evenodd" d="M137.64 328.852C137.64 333.247 133.774 336.808 129.004 336.808C124.235 336.808 120.369 333.247 120.369 328.852C120.369 324.458 124.235 320.897 129.004 320.897C133.774 320.897 137.64 324.458 137.64 328.852Z" fill="#E8F2FC"></path><path fill-rule="evenodd" clip-rule="evenodd" d="M177.942 264.681C177.942 269.076 174.076 272.634 169.304 272.634C164.537 272.634 160.67 269.076 160.67 264.681C160.67 260.287 164.537 256.726 169.304 256.726C174.076 256.726 177.942 260.287 177.942 264.681Z" fill="#E8F2FC"></path><path fill-rule="evenodd" clip-rule="evenodd" d="M177.942 392.495C177.942 396.888 174.076 400.449 169.304 400.449C164.537 400.449 160.67 396.888 160.67 392.495C160.67 388.1 164.537 384.538 169.304 384.538C174.076 384.538 177.942 388.1 177.942 392.495Z" fill="#E8F2FC"></path><path fill-rule="evenodd" clip-rule="evenodd" d="M257.963 264.681C257.963 269.076 254.095 272.634 249.329 272.634C244.558 272.634 240.693 269.076 240.693 264.681C240.693 260.287 244.558 256.726 249.329 256.726C254.095 256.726 257.963 260.287 257.963 264.681Z" fill="#E8F2FC"></path><path fill-rule="evenodd" clip-rule="evenodd" d="M288.1 329.202L247.499 264.411L288.546 198.919H370.644L411.25 263.7L408.581 265.12L368.865 201.76H290.328L251.062 264.411L290.772 327.78L288.1 329.202Z" fill="#E8F2FC"></path><path fill-rule="evenodd" clip-rule="evenodd" d="M298.221 200.51C298.221 204.905 294.353 208.463 289.585 208.463C284.816 208.463 280.948 204.905 280.948 200.51C280.948 196.116 284.816 192.555 289.585 192.555C294.353 192.555 298.221 196.116 298.221 200.51Z" fill="#E8F2FC"></path><path fill-rule="evenodd" clip-rule="evenodd" d="M130.327 200.916L127.655 199.495L168.255 134.716H249.466V137.557H170.037L130.327 200.916Z" fill="#E8F2FC"></path><path fill-rule="evenodd" clip-rule="evenodd" d="M177.93 136.307C177.93 140.7 174.064 144.259 169.294 144.259C164.525 144.259 160.659 140.7 160.659 136.307C160.659 131.911 164.525 128.351 169.294 128.351C174.064 128.351 177.93 131.911 177.93 136.307Z" fill="#E8F2FC"></path><path fill-rule="evenodd" clip-rule="evenodd" d="M610.343 457.691H529.131L488.085 392.189L529.131 326.698H611.235L651.84 391.48L649.169 392.902L609.452 329.54H530.913L491.649 392.189L530.913 454.849H610.343V457.691Z" fill="#E8F2FC"></path><path fill-rule="evenodd" clip-rule="evenodd" d="M498.507 392.459C498.507 396.852 494.639 400.414 489.872 400.414C485.103 400.414 481.234 396.852 481.234 392.459C481.234 388.066 485.103 384.507 489.872 384.507C494.639 384.507 498.507 388.066 498.507 392.459Z" fill="#E8F2FC"></path><path fill-rule="evenodd" clip-rule="evenodd" d="M659.133 392.459C659.133 396.852 655.263 400.414 650.498 400.414C645.727 400.414 641.858 396.852 641.858 392.459C641.858 388.066 645.727 384.507 650.498 384.507C655.263 384.507 659.133 388.066 659.133 392.459Z" fill="#E8F2FC"></path><path fill-rule="evenodd" clip-rule="evenodd" d="M538.808 328.29C538.808 332.683 534.941 336.248 530.173 336.248C525.402 336.248 521.535 332.683 521.535 328.29C521.535 323.895 525.402 320.334 530.173 320.334C534.941 320.334 538.808 323.895 538.808 328.29Z" fill="#E8F2FC"></path><path fill-rule="evenodd" clip-rule="evenodd" d="M538.808 456.1C538.808 460.495 534.941 464.055 530.173 464.055C525.402 464.055 521.535 460.495 521.535 456.1C521.535 451.707 525.402 448.144 530.173 448.144C534.941 448.144 538.808 451.707 538.808 456.1Z" fill="#E8F2FC"></path><path fill-rule="evenodd" clip-rule="evenodd" d="M618.833 456.1C618.833 460.495 614.963 464.055 610.198 464.055C605.427 464.055 601.561 460.495 601.561 456.1C601.561 451.707 605.427 448.144 610.198 448.144C614.963 448.144 618.833 451.707 618.833 456.1Z" fill="#E8F2FC"></path><path fill-rule="evenodd" clip-rule="evenodd" d="M10.001 265.669L7.3291 264.247L47.9342 199.465H130.036L170.637 264.247L167.964 265.669L128.255 202.306H49.7158L10.001 265.669Z" fill="#E8F2FC"></path><mask id="mask0" maskUnits="userSpaceOnUse" x="0" y="0" width="660" height="656"><path fill-rule="evenodd" clip-rule="evenodd" d="M0 656H659.158V0H0V656Z" fill="white"></path></mask><g mask="url(#mask0)"><path fill-rule="evenodd" clip-rule="evenodd" d="M48.8242 330.459H129.143V327.615H48.8242V330.459Z" fill="#E8F2FC"></path><path fill-rule="evenodd" clip-rule="evenodd" d="M0.0341797 265.227C0.0341797 269.623 3.8993 273.182 8.67027 273.182C13.4371 273.182 17.3064 269.623 17.3064 265.227C17.3064 260.835 13.4371 257.272 8.67027 257.272C3.8993 257.272 0.0341797 260.835 0.0341797 265.227Z" fill="#E8F2FC"></path><path fill-rule="evenodd" clip-rule="evenodd" d="M120.36 201.056C120.36 205.449 124.227 209.011 128.995 209.011C133.764 209.011 137.631 205.449 137.631 201.056C137.631 196.664 133.764 193.1 128.995 193.1C124.227 193.1 120.36 196.664 120.36 201.056Z" fill="#E8F2FC"></path><path fill-rule="evenodd" clip-rule="evenodd" d="M528.882 328.725L489.167 265.362H410.628L370.917 328.725L368.247 327.303L408.846 262.521H490.947L531.55 327.303L528.882 328.725Z" fill="#E8F2FC"></path><path fill-rule="evenodd" clip-rule="evenodd" d="M408.332 648.927L367.729 584.136L408.776 518.646H490.877L531.482 583.424L528.81 584.845L489.095 521.486H410.557L371.292 584.136L411 647.506L408.332 648.927Z" fill="#E8F2FC"></path><path fill-rule="evenodd" clip-rule="evenodd" d="M378.15 584.406C378.15 588.801 374.285 592.36 369.515 592.36C364.744 592.36 360.879 588.801 360.879 584.406C360.879 580.009 364.744 576.449 369.515 576.449C374.285 576.449 378.15 580.009 378.15 584.406Z" fill="#E8F2FC"></path><path fill-rule="evenodd" clip-rule="evenodd" d="M538.776 584.406C538.776 588.801 534.911 592.36 530.139 592.36C525.37 592.36 521.505 588.801 521.505 584.406C521.505 580.009 525.37 576.449 530.139 576.449C534.911 576.449 538.776 580.009 538.776 584.406Z" fill="#E8F2FC"></path><path fill-rule="evenodd" clip-rule="evenodd" d="M418.45 520.233C418.45 524.628 414.583 528.189 409.815 528.189C405.046 528.189 401.181 524.628 401.181 520.233C401.181 515.84 405.046 512.28 409.815 512.28C414.583 512.28 418.45 515.84 418.45 520.233Z" fill="#E8F2FC"></path><path fill-rule="evenodd" clip-rule="evenodd" d="M418.45 648.049C418.45 652.44 414.583 656 409.815 656C405.046 656 401.181 652.44 401.181 648.049C401.181 643.652 405.046 640.093 409.815 640.093C414.583 640.093 418.45 643.652 418.45 648.049Z" fill="#E8F2FC"></path><path fill-rule="evenodd" clip-rule="evenodd" d="M498.472 520.233C498.472 524.628 494.607 528.189 489.839 528.189C485.068 528.189 481.201 524.628 481.201 520.233C481.201 515.84 485.068 512.28 489.839 512.28C494.607 512.28 498.472 515.84 498.472 520.233Z" fill="#E8F2FC"></path><path fill-rule="evenodd" clip-rule="evenodd" d="M491.386 521.146L488.715 519.725L528.876 455.646L531.547 457.066L491.386 521.146Z" fill="#E8F2FC"></path><path fill-rule="evenodd" clip-rule="evenodd" d="M408.394 521.146L367.791 456.354L408.84 390.861H490.049V393.703H410.62L371.352 456.354L411.065 519.725L408.394 521.146Z" fill="#E8F2FC"></path></g></svg> 